<svg id="Layer_1" height="512" viewBox="0 0 512 512" width="512" xmlns="http://www.w3.org/2000/svg" data-name="Layer 1"><path d="m393 93.258c-9-9.064-23.289-8.81-32.355.252s-8.537 24.077.528 33.142c4.39 4.391 10.228 7.344 16.438 7.344 6.209 0 11.523-2.948 15.911-7.337 9.068-9.059 8.478-24.338-.522-33.403zm-7.716 24.919c-2.122 2.122-4.665 3.823-7.668 3.823-3 0-5.9-1.7-8.025-3.829a11.914 11.914 0 0 1 -.076-16.437 10.89 10.89 0 0 1 7.809-3.286c2.881 0 4.678 1.105 7.678 3.3v.008c3.998 4.386 4.666 12.037.282 16.421z"/><path d="m84.985 380c-6.21 0-12.045 1.949-16.435 6.338a22.711 22.711 0 0 0 .007 32.408 23.184 23.184 0 0 0 16.443 6.8 22.881 22.881 0 0 0 16.427-39.2c-4.395-4.393-10.233-6.346-16.442-6.346zm7.49 30.383a10.7 10.7 0 0 1 -15.437.111 10.978 10.978 0 0 1 -.007-15.671c2.123-2.123 4.946-2.823 7.948-2.823 3 0 5.018.2 7.018 2.327v.03c4.003 4.386 4.86 11.643.478 16.026z"/><path d="m364.186 174.33-1.415 1.414a6 6 0 1 0 8.482 8.488l1.415-1.414a6 6 0 0 0 -8.482-8.488z"/><path d="m344.385 194.13-65.054 65.054a6 6 0 1 0 8.484 8.485l65.054-65.054a6 6 0 1 0 -8.484-8.485z"/><path d="m499.383 380.592c-5.247-18-17.7-24.614-25.947-28.992-6.385-3.393-6.912-3.979-7.647-6.5-.7-2.415-.563-3.178 3.111-9.5 4.756-8.184 11.942-20.552 6.662-38.66-5.262-18.048-17.85-24.638-26.192-29-6.436-3.371-6.964-3.945-7.68-6.4-.721-2.475-.587-3.246 3.026-9.559 4.664-8.153 11.712-20.472 6.452-38.509-5.268-18.064-17.881-24.646-26.237-29.007-6.445-3.364-6.972-3.937-7.685-6.383a9.639 9.639 0 0 1 -.254-1.078l2.952-2.953a74.083 74.083 0 0 0 0-104.652l-2.037-2.036a74.105 74.105 0 0 0 -94.107-8.743h-312.8a6 6 0 0 0 -5.579 8.208 125.218 125.218 0 0 0 116.426 79.13h112.805l-192 192a74.083 74.083 0 0 0 0 104.651l2.037 2.037a74.074 74.074 0 0 0 101.492 2.967l99.88-.387a205.653 205.653 0 0 0 153.881-70.166l.6-.687a6 6 0 0 0 -4.513-9.954h-.023l-169.093.653 162.8-162.8c5.731 6.843 12.624 10.455 17.971 13.243 6.444 3.362 6.971 3.936 7.685 6.385.722 2.474.588 3.245-3.025 9.559-4.664 8.152-11.712 20.471-6.452 38.509 5.265 18.059 17.859 24.646 26.192 29 6.436 3.368 6.962 3.942 7.679 6.4.7 2.415.563 3.178-3.108 9.494-4.758 8.185-11.946 20.554-6.665 38.666 5.244 17.989 17.7 24.61 25.949 28.994 6.382 3.387 6.908 3.973 7.645 6.5l6.867 23.558a18.677 18.677 0 0 0 17.874 13.435 18.722 18.722 0 0 0 5.245-.754 18.644 18.644 0 0 0 12.681-23.118zm-377.536-246.634a113.232 113.232 0 0 1 -101.641-63.338h289.784l-63.338 63.338zm260.353 244.514a193.667 193.667 0 0 1 -136.185 56.754l-87.592.34 56.447-56.448zm-241.345 57.689a62.07 62.07 0 0 1 -87.681 0l-2.037-2.037a62.071 62.071 0 0 1 0-87.682l43.748-43.742 34.089 34.089a10.6 10.6 0 0 0 14.987 0l112.422-112.425a6 6 0 0 0 0-8.485 6 6 0 0 0 -8.485 0l-111.43 111.429-33.1-33.1 166.141-166.136 33.1 33.1-19.354 19.354a6 6 0 0 0 8.485 8.485l20.345-20.345a10.537 10.537 0 0 0 3.1-7.953 11.059 11.059 0 0 0 -3.339-7.28l-33.845-33.844 43.748-43.748a62.07 62.07 0 0 1 87.682 0l2.037 2.036a62.073 62.073 0 0 1 0 87.682zm353.323-23.6a6.646 6.646 0 0 1 -12.206-1.335l-6.872-23.555c-2.261-7.755-7.238-10.4-13.537-13.739-7.607-4.044-16.229-8.627-20.057-21.755-3.841-13.172 1.133-21.728 5.521-29.28 3.63-6.245 6.5-11.178 4.252-18.878-2.248-7.717-7.273-10.347-13.636-13.677-7.687-4.021-16.4-8.578-20.236-21.732s1.045-21.669 5.351-29.194c3.565-6.229 6.382-11.149 4.128-18.874s-7.282-10.338-13.657-13.665c-5.053-2.635-10.665-5.572-14.987-11.136l9.563-9.564c2.662 4.26 6.729 6.391 11.581 8.922 7.7 4.018 16.422 8.571 20.258 21.723s-1.044 21.669-5.35 29.195c-3.566 6.229-6.382 11.149-4.128 18.873s7.271 10.343 13.647 13.682c7.684 4.022 16.392 8.581 20.225 21.726 3.84 13.169-1.131 21.724-5.52 29.278-3.631 6.245-6.5 11.179-4.253 18.881 2.257 7.746 7.234 10.391 13.537 13.74 7.606 4.041 16.227 8.62 20.057 21.754l6.868 23.558a6.6 6.6 0 0 1 -.549 5.055z"/></svg>